<svg width="498" height="424" viewBox="0 0 498 424" fill="none" xmlns="http://www.w3.org/2000/svg">
<path d="M66.5318 279.936H107.957V423.042H66.5318V279.936Z" fill="#A27758"/>
<path d="M86.6169 279.936H107.957V423.042H86.6169V279.936Z" fill="#8B664C"/>
<path fill-rule="evenodd" clip-rule="evenodd" d="M136.996 73.3993C139.321 67.3728 140.596 60.824 140.596 53.9786C140.596 24.1673 116.428 0 86.6169 0C56.8053 0 32.6382 24.1673 32.6382 53.9786C32.6382 61.1514 34.0371 67.9968 36.577 74.2574C22.5494 87.6319 13.8085 106.502 13.8085 127.415C13.8085 138.201 16.1339 148.444 20.3107 157.67C7.63587 172.734 0 192.176 0 213.404C0 261.241 38.7797 300.021 86.6169 300.021C134.454 300.021 173.234 261.241 173.234 213.404C173.234 192.631 165.921 173.565 153.729 158.642C158.188 149.166 160.681 138.581 160.681 127.415C160.681 106.051 151.558 86.8192 136.996 73.3993Z" fill="#9DC386"/>
<path fill-rule="evenodd" clip-rule="evenodd" d="M142.16 53.9786C142.16 24.1671 117.293 0 86.6169 0V300.021C135.841 300.021 175.744 261.241 175.744 213.404C175.744 192.177 167.887 172.733 154.845 157.67C159.143 148.444 161.536 138.201 161.536 127.415C161.536 106.503 152.541 87.6323 138.107 74.2577C140.721 67.9967 142.16 61.151 142.16 53.9786Z" fill="#89AA74"/>
<path fill-rule="evenodd" clip-rule="evenodd" d="M107.957 320.106V423.001H86.6198L107.957 320.106Z" fill="#634935"/>
<path fill-rule="evenodd" clip-rule="evenodd" d="M144.858 81.5956L86.6169 299.897C136.542 299.855 177 261.313 177 213.775C177 192.669 169.025 173.337 155.787 158.359C160.149 149.186 162.578 139.002 162.578 128.277C162.578 110.524 155.923 94.2511 144.858 81.5956Z" fill="#799765"/>
<path d="M359 289H379H409V423H379H359V289Z" fill="#A27758"/>
<path d="M379 289H409V423H379V289Z" fill="#8B664C"/>
<path d="M379 423L409 301L409 423H379Z" fill="#634935"/>
<path fill-rule="evenodd" clip-rule="evenodd" d="M340.999 162C348.297 145.507 364.804 134 384 134C403.302 134 419.887 145.636 427.122 162.276C450.67 164.828 469 184.773 469 209L469 209.057C486.403 219.801 498 239.046 498 261C498 294.689 470.689 322 437 322C426.765 322 417.12 319.48 408.649 315.025C401.483 319.448 393.039 322 384 322C374.961 322 366.517 319.448 359.351 315.025C350.88 319.48 341.235 322 331 322C297.311 322 270 294.689 270 261C270 241.168 279.464 223.547 294.122 212.406C294.041 211.281 294 210.145 294 209C294 183.043 315.042 162.001 340.999 162Z" fill="#9DC386"/>
<path fill-rule="evenodd" clip-rule="evenodd" d="M384 134C403.196 134 419.703 145.507 427.001 162C452.958 162.001 474 183.043 474 209C474 210.145 473.959 211.281 473.878 212.406C488.536 223.547 498 241.168 498 261C498 294.689 470.689 322 437 322C426.765 322 417.12 319.48 408.649 315.025C401.483 319.448 393.039 322 384 322C382.311 322 380.643 321.911 379 321.737V134.263C380.643 134.089 382.311 134 384 134Z" fill="#89AA74"/>
<path fill-rule="evenodd" clip-rule="evenodd" d="M421.685 153C423.672 155.709 425.375 158.638 426.751 161.743C452.8 161.744 473.916 182.82 473.916 208.818C473.916 209.966 473.874 211.103 473.794 212.23C488.503 223.389 498 241.039 498 260.902C498 294.646 470.593 322.001 436.785 322.001C426.514 322.001 416.834 319.476 408.334 315.015C401.142 319.444 392.669 322 383.598 322C382.047 322 380.513 321.925 379 321.779L421.685 153Z" fill="#799766"/>
</svg>
